<svg xmlns="http://www.w3.org/2000/svg" viewBox="-14 -3 28 16">
  <!-- <rect x="-14" y="-3" width="28" height="16" fill="white" /> -->
       

  <!-- Pins: exaktes 2.54 mm Raster -->
  <g fill="black">
    <!-- <circle cx="-1.27" cy="2.54"     r="0.6"/> -->
    <rect x="-1.87" y="1.94" width="1.2" height="1.2"/>
    <circle cx="1.27"  cy="2.54"     r="0.6"/>

    <circle cx="-1.27" cy="5.08"     r="0.6"/>
    <circle cx="1.27" cy="5.08"      r="0.6"/>

    <circle cx="-1.27" cy="7.62"     r="0.6"/>
    <circle cx="1.27" cy="7.62"      r="0.6"/>
  </g>

  <!-- Border -->
  <g stroke="black" stroke-width="0.3" fill="none">
    <line x1="-3.2"   y1="3"    x2="-3.2" y2="-1"/>
    <line x1="-3.35"   y1="-1"     x2="3.35" y2="-1"/> 
    <line x1="3.2"    y1="-1"    x2="3.2" y2="11.16"/> 
    <line x1="-3.35" y1="11.16"   x2="3.35" y2="11.16"/> 
    <line x1="-3.2" y1="11.16"   x2="-3.2" y2="7.02"/> 
  </g>

  <!-- Pin Number -->
  <g font-family="sans-serif" font-size="1.6" font-weight="600" fill="black">
    <text x="-5" y="3.2">1</text>
    <text x="-5" y="5.74">3</text>
    <text x="-5" y="8.28">5</text>

    <text x="4" y="3.2">2</text>
    <text x="4" y="5.74">4</text>
    <text x="4" y="8.28">6</text>
  </g>

    <!-- Pin Line between Number and Text -->
  <g stroke="black" stroke-width="0.1" fill="none">
    <line x1="-7.2"   y1="2.7"    x2="-5.6" y2="2.7"/>
    <line x1="-7.2"   y1="5.24"    x2="-5.6" y2="5.24"/>
    <line x1="-7.2"   y1="7.78"    x2="-5.6" y2="7.78"/>

    <line x1="5.6"   y1="2.7"    x2="7.2" y2="2.7"/>
    <line x1="5.6"   y1="5.24"    x2="7.2" y2="5.24"/>
    <line x1="5.6"   y1="7.78"    x2="7.2" y2="7.78"/>

    <line x1="-10.7"   y1="6.8"  x2="-7.8" y2="6.8"/>    <!-- RST Top Line  -->
  </g>
  
    <!-- Pin Text -->
  <g font-family="sans-serif" font-size="1.6" font-weight="600" fill="black">
    <text x="-12" y="3.2">MISO</text>
    <text x="-10.7" y="5.74">SCK</text>
    <text x="-10.7" y="8.28">RST</text>

    <text x="8" y="3.2">VTG</text>
    <text x="8" y="5.74">MOSI</text>
    <text x="8" y="8.28">GND</text>
  </g>
  
</svg>

